ply
format ascii 1.0
element vertex 256
comment vertices
property float x
property float y
property float z
end_header
0.615573465824127197 0.83460468053817749 -0.103153586387634277
30.3756370544433594 65.03485107421875 25.1065177917480469
8.89116954803466797 54.7575035095214844 8.11727428436279297
4.52886629104614258 26.870941162109375 5.1174769401550293
1.73082613945007324 11.7081575393676758 2.53364038467407227
10.6596469879150391 63.9238739013671875 9.16168880462646484
23.5058002471923828 65.1399154663085938 22.2517642974853516
-0.78411865234375 6.66695833206176758 0.242584377527236938
3.41448593139648438 21.9583759307861328 4.49266481399536133
-0.41595691442489624 8.66012954711914062 4.69003963470458984
2.4661717414855957 3.97457790374755859 1.67737925052642822
27.3032035827636719 65.1050567626953125 21.7321681976318359
-2.24123477935791016 2.83700871467590332 1.19581711292266846
0.156521975994110107 3.86727738380432129 0.0351856127381324768
25.9694099426269531 64.9980850219726562 24.0617580413818359
0.322793275117874146 4.85130214691162109 2.9549410343170166
29.7953529357910156 65.0686264038085938 22.3294715881347656
1.42086827754974365 9.62672615051269531 1.24450469017028809
-1.11641025543212891 7.06167173385620117 2.64645552635192871
28.1638545989990234 65.07666015625 24.6784553527832031
-1.31858599185943604 1.60428798198699951 -0.144690722227096558
24.0565910339355469 65.0864944458007812 24.2474040985107422
0.49630284309387207 5.44327354431152344 1.07354164123535156
25.6624374389648438 65.2065887451171875 21.0694408416748047
2.32166147232055664 2.52823591232299805 0.802354276180267334
0.43478095531463623 2.3463287353515625 0.644752383232116699
-1.13501524925231934 5.36920309066772461 1.33576869964599609
1.7147974967956543 3.81698894500732422 -0.022776581346988678
-0.462062627077102661 8.44581794738769531 2.35024785995483398
0.41062358021736145 6.75815296173095703 2.5829002857208252
-0.125966787338256836 4.0233464241027832 1.54735350608825684
29.2195396423339844 64.9506912231445312 26.0046634674072266
25.1574440002441406 65.2187042236328125 22.8692493438720703
30.6153621673583984 65.0330734252929688 23.5051689147949219
-0.848837375640869141 2.87054991722106934 0.938638448715209961
-0.870327770709991455 4.79660797119140625 0.138870760798454285
27.6400852203369141 65.225555419921875 23.4806690216064453
-0.422525584697723389 6.44539546966552734 1.58758783340454102
24.6073856353759766 65.162933349609375 21.6806926727294922
28.9569931030273438 65.0438690185546875 23.7523670196533203
1.59213268756866455 1.50038790702819824 -0.210394024848937988
-0.930737733840942383 7.28220558166503906 3.7756352424621582
-0.643010973930358887 3.81588959693908691 2.56817412376403809
-0.238633662462234497 8.49989795684814453 3.56386733055114746
-0.485696732997894287 2.83251833915710449 -0.145769119262695312
26.5266265869140625 65.1446914672851562 22.54534912109375
-0.161130309104919434 1.78820383548736572 -0.062796473503112793
0.648925423622131348 4.90247917175292969 0.154993802309036255
28.735443115234375 65.1531295776367188 22.38653564453125
0.93302154541015625 2.87444806098937988 -0.127334713935852051
-0.821321606636047363 3.8939821720123291 0.728360533714294434
0.551759898662567139 4.72432374954223633 1.94605469703674316
0.916749179363250732 5.91254901885986328 0.281690984964370728
29.5541896820068359 65.2387466430664062 21.3847389221191406
0.196884378790855408 3.2554023265838623 1.06238102912902832
-1.85734045505523682 2.36110067367553711 0.0466337502002716064
-0.640537679195404053 5.73628330230712891 0.14287799596786499
23.2117919921875 65.136474609375 23.1332893371582031
-0.20502355694770813 4.65714406967163086 0.766783714294433594
-0.82214510440826416 7.2612299919128418 1.71142494678497314
0.673625051975250244 6.318695068359375 1.26505494117736816
24.3490867614746094 65.1666946411132812 23.2661933898925781
2.81980443000793457 3.31692314147949219 1.2060697078704834
27.8633804321289062 65.0753707885742188 22.4711589813232422
-0.892322063446044922 2.22195959091186523 0.338248312473297119
0.695899546146392822 1.92162096500396729 -0.178869932889938354
26.4978961944580078 65.1727294921875 21.3259334564208984
26.7845172882080078 64.9845657348632812 23.7691478729248047
29.8121585845947266 65.0505142211914062 23.8043231964111328
-1.45291459560394287 2.29045605659484863 1.03432238101959229
25.7032833099365234 65.1746673583984375 22.257965087890625
1.04381978511810303 4.1929631233215332 0.257578760385513306
-0.384278237819671631 5.57558965682983398 1.09299898147583008
0.30946958065032959 5.96952104568481445 2.44672298431396484
29.2483978271484375 64.992156982421875 25.2307395935058594
0.234980255365371704 2.5777595043182373 -0.0813707411289215088
28.1876029968261719 64.9876022338867188 23.9319210052490234
-0.908815681934356689 4.73331832885742188 1.01842379570007324
-0.69512176513671875 4.09926223754882812 -8.85426998138427734e-05
-0.778959751129150391 7.83297920227050781 2.13773536682128906
-0.987156152725219727 6.05832958221435547 1.42873525619506836
-0.703198611736297607 1.28240084648132324 -0.191054821014404297
-0.482748508453369141 3.41074275970458984 1.10721504688262939
0.750643551349639893 3.68068861961364746 -0.213713318109512329
27.5907936096191406 65.0074691772460938 24.3446388244628906
25.6791210174560547 65.1552047729492188 23.4849147796630859
0.70575106143951416 4.81491851806640625 0.810560703277587891
-1.88369905948638916 1.59186530113220215 0.201106339693069458
-0.16651444137096405 6.71222925186157227 0.453223198652267456
0.519113361835479736 4.11655759811401367 1.54443717002868652
24.6030044555664062 65.1172103881835938 22.5519924163818359
0.0783223509788513184 4.49623012542724609 0.144591957330703735
-0.592366695404052734 6.92363262176513672 2.2064354419708252
2.25218892097473145 3.49501347541809082 0.978150308132171631
0.022923007607460022 3.25436854362487793 -0.0595460236072540283
-1.59844827651977539 2.85310626029968262 1.27923774719238281
24.0486297607421875 65.1551361083984375 21.9545707702636719
30.9138011932373047 65.0735549926757812 22.9695396423339844
-0.295609205961227417 8.81120967864990234 4.08602476119995117
29.5673847198486328 65.2180023193359375 22.8756752014160156
-1.03888428211212158 6.14095258712768555 0.310997307300567627
-0.21630452573299408 3.82113885879516602 0.781792759895324707
29.2378654479980469 65.083770751953125 22.0968303680419922
-1.24507284164428711 2.62793135643005371 0.587702751159667969
25.1090736389160156 65.0494537353515625 23.4978408813476562
29.5035495758056641 64.9799957275390625 24.2886734008789062
25.396636962890625 65.0179824829101562 24.0748329162597656
29.8104381561279297 65.024566650390625 25.1041660308837891
0.188230395317077637 2.96096038818359375 0.582271754741668701
28.7214412689208984 65.0510406494140625 24.2609348297119141
-0.710197329521179199 1.88368582725524902 -0.0951057672500610352
27.1037883758544922 65.2706756591796875 21.2400703430175781
24.0474777221679688 65.12445068359375 22.531982421875
25.9363994598388672 65.1316986083984375 21.7589263916015625
-0.798297464847564697 5.23586273193359375 0.818226993083953857
-1.15266072750091553 3.15864682197570801 1.38825631141662598
28.1690883636474609 64.9623489379882812 25.2106914520263672
-1.4566112756729126 1.9160463809967041 0.289759188890457153
24.5790576934814453 65.0405502319335938 23.7364692687988281
1.28533494472503662 3.51266646385192871 -0.134924948215484619
27.0639915466308594 65.1516799926757812 22.5353546142578125
0.626774609088897705 1.35886931419372559 -0.151571184396743774
-0.184887528419494629 1.26076781749725342 -0.150966465473175049
27.5875625610351562 65.08795166015625 22.9110126495361328
30.0881099700927734 65.1275177001953125 22.7525444030761719
0.542913436889648438 4.36295843124389648 -0.0343767702579498291
-0.857616662979125977 8.16913604736328125 2.52413415908813477
28.6866893768310547 65.0474700927734375 22.8826637268066406
2.5776374340057373 2.92151141166687012 0.990229308605194092
0.253872603178024292 2.05613946914672852 0.0333828628063201904
-0.860883951187133789 6.68400144577026367 1.53238964080810547
29.2218227386474609 65.01934814453125 23.3291301727294922
-0.364568382501602173 4.67896509170532227 0.0106429159641265869
28.1597709655761719 65.14984130859375 22.0797691345214844
0.469770312309265137 3.01556062698364258 -0.206565499305725098
28.1760520935058594 65.0954437255859375 23.45855712890625
-1.30724287033081055 2.40105438232421875 0.172628507018089294
-0.684984564781188965 5.26713657379150391 0.211248576641082764
26.5587673187255859 65.1474380493164062 23.3837051391601562
1.1284860372543335 1.59477674961090088 -0.222222268581390381
0.234538853168487549 4.58957624435424805 1.62987065315246582
26.2663154602050781 65.2200546264648438 22.9260387420654297
-0.337283849716186523 7.95392751693725586 2.19528937339782715
-0.494926154613494873 6.94438028335571289 1.67221200466156006
-0.395858675241470337 3.84805583953857422 1.20780467987060547
-0.0632366389036178589 4.24453592300415039 0.631230711936950684
-1.01590955257415771 5.74678564071655273 1.11101317405700684
29.0142421722412109 65.113128662109375 25.585357666015625
-0.00606756610795855522 3.64385342597961426 1.18628430366516113
2.19067168235778809 2.94436764717102051 0.776278018951416016
-0.691320300102233887 5.5386805534362793 1.39712607860565186
1.38916206359863281 4.10155582427978516 -0.00350025296211242676
26.8111991882324219 65.1288604736328125 22.8816318511962891
-0.971310973167419434 2.72408151626586914 0.271298438310623169
-1.78802204132080078 2.52997851371765137 0.942138552665710449
0.660573661327362061 2.55289483070373535 -0.135771870613098145
-0.165785402059555054 5.25756168365478516 0.928266286849975586
0.730972170829772949 3.98133730888366699 0.0761812031269073486
-0.207619905471801758 3.7426602840423584 -0.124888390302658081
-1.12273359298706055 1.94256925582885742 -0.000654041767120361328
-0.11873529851436615 2.19782900810241699 -0.0930368006229400635
-0.3395194411277771 4.78786516189575195 1.13442516326904297
-0.812703132629394531 4.34598159790039062 0.914861142635345459
0.940922319889068604 2.25332403182983398 -0.150533884763717651
-1.30124950408935547 2.75403928756713867 1.0147707462310791
24.0214595794677734 65.0846786499023438 23.4925861358642578
-0.504384696483612061 3.23415994644165039 -0.112753421068191528
0.8564797043800354 4.55267429351806641 0.132768034934997559
29.8164119720458984 65.1040496826171875 21.9326992034912109
-1.84902036190032959 2.11520147323608398 0.353318005800247192
-0.429840624332427979 5.94573736190795898 1.19110870361328125
-1.68081521987915039 1.47255110740661621 -0.13927951455116272
24.3352527618408203 65.1348724365234375 22.8828544616699219
-0.18272167444229126 3.44010710716247559 0.869154870510101318
0.124495089054107666 1.54870939254760742 -0.147806495428085327
-0.467676758766174316 7.30584812164306641 1.84749579429626465
-0.144449293613433838 2.59156918525695801 -0.107826977968215942
0.271402359008789062 3.53283596038818359 -0.133655577898025513
0.125455409288406372 3.99514126777648926 1.2484668493270874
-1.34943008422851562 2.26528263092041016 0.632169961929321289
-1.0385737419128418 5.07784938812255859 1.12000894546508789
-0.474752068519592285 1.59693360328674316 -0.0189124345779418945
-0.885444045066833496 6.32110595703125 1.6606525182723999
28.1570339202880859 64.9576263427734375 24.3339157104492188
25.4177799224853516 65.1738052368164062 23.2315673828125
-0.970690369606018066 2.47698688507080078 0.773012816905975342
-1.82892012596130371 1.87936508655548096 -0.0140961706638336182
29.7798213958740234 65.0380783081054688 23.4450149536132812
-0.705397725105285645 4.48470926284790039 0.0674866586923599243
-1.01616311073303223 2.84513759613037109 1.27627217769622803
-0.758907139301300049 3.19315814971923828 0.827865898609161377
0.58202439546585083 4.48485755920410156 1.68944311141967773
-0.181654632091522217 6.26709842681884766 1.40464258193969727
0.278638064861297607 2.84389591217041016 0.89975738525390625
26.01531982421875 65.0877761840820312 23.5554180145263672
27.8884239196777344 65.128326416015625 23.8326187133789062
1.07981228828430176 4.22546768188476562 -0.0846238806843757629
-0.14536130428314209 4.06828546524047852 -0.0439564883708953857
-0.651120364665985107 3.65357017517089844 0.93667304515838623
0.380639851093292236 3.25128936767578125 0.0165700018405914307
-0.628567516803741455 3.06694221496582031 1.11128997802734375
0.560702264308929443 2.22662687301635742 -0.156476795673370361
-0.44449201226234436 4.07359027862548828 1.46762537956237793
-0.195851445198059082 2.9932408332824707 -0.129120111465454102
29.5360698699951172 64.9467697143554688 25.9078311920166016
-0.420617997646331787 4.42336273193359375 0.854292929172515869
-0.431287646293640137 2.09765481948852539 -0.0637951195240020752
1.32842648029327393 1.30580949783325195 -0.228783637285232544
0.374274551868438721 4.08646726608276367 0.144456177949905396
0.447905182838439941 4.47722482681274414 0.250849604606628418
-0.837538599967956543 1.56828832626342773 -0.144500464200973511
-0.438205748796463013 6.60302066802978516 0.333233177661895752
0.417531907558441162 5.00390195846557617 2.00576019287109375
29.781829833984375 65.1475372314453125 22.6587448120117188
-0.847254395484924316 6.95923233032226562 0.330558180809020996
-0.989523112773895264 4.04206562042236328 0.0806377455592155457
-0.666328608989715576 8.12170600891113281 2.15564179420471191
-0.821619987487792969 6.99035310745239258 1.53658103942871094
0.100307166576385498 4.32231807708740234 1.70285916328430176
-0.418700933456420898 4.37806797027587891 -0.0241711288690567017
-0.928876638412475586 5.45794963836669922 1.05109453201293945
-0.876011848449707031 2.13468718528747559 -0.0314247161149978638
0.82432401180267334 1.59212303161621094 -0.154373198747634888
-0.487685501575469971 5.98538064956665039 0.230683475732803345
0.244277402758598328 4.30331087112426758 -0.020832303911447525
0.167015194892883301 1.84467899799346924 -0.173861533403396606
29.2322540283203125 65.099456787109375 24.2435131072998047
-0.932096481323242188 5.71718740463256836 1.40218198299407959
23.4974689483642578 65.0853118896484375 23.0584850311279297
-0.584778070449829102 4.88183784484863281 0.127697736024856567
-1.44763839244842529 1.88471305370330811 -0.00645375251770019531
-0.86206895112991333 5.71482276916503906 0.340277194976806641
-1.50607216358184814 2.54567050933837891 0.852396488189697266
26.8277816772460938 65.0351943969726562 23.3573379516601562
0.319203704595565796 2.65088295936584473 0.684745609760284424
0.195588529109954834 3.02258706092834473 -0.0993944033980369568
-0.102580524981021881 4.35584592819213867 -0.0570851564407348633
0.0905025079846382141 2.21653890609741211 0.211962729692459106
26.2179927825927734 65.19012451171875 21.2538681030273438
0.424901187419891357 4.694915771484375 0.0635235905647277832
-0.452322632074356079 3.96566510200500488 -0.0788029953837394714
0.571548044681549072 2.17383313179016113 0.460711270570755005
-1.08620667457580566 3.06977558135986328 1.11357605457305908
1.24113476276397705 3.85846590995788574 0.00925400853157043457
0.382074832916259766 4.99907016754150391 0.163754016160964966
-0.275705426931381226 3.46732926368713379 -0.126394122838973999
-1.06260013580322266 2.47469449043273926 0.369471818208694458
0.396596223115921021 3.68293976783752441 0.0711765587329864502
-1.23875319957733154 1.73606562614440918 0.292022645473480225
-0.902310431003570557 1.82899296283721924 0.134804606437683105
-0.939376711845397949 6.40360546112060547 0.311164289712905884
1.04039549827575684 3.38551044464111328 -0.170335561037063599
-0.654868781566619873 4.63567924499511719 0.985713005065917969
-1.69783210754394531 1.8067009449005127 0.221797332167625427
0.856490373611450195 4.23659467697143555 0.0742548108100891113
-0.429907292127609253 1.24811124801635742 -0.0525536239147186279
