ply
format ascii 1.0
element vertex 256
comment vertices
property float x
property float y
property float z
end_header
0.604016005992889404 0.829861223697662354 -0.0951456204056739807
30.4285087585449219 65.3286361694335938 24.8633880615234375
8.93000602722167969 55.0643386840820312 7.86675834655761719
4.51503658294677734 27.2669620513916016 4.872711181640625
1.72340929508209229 12.0964765548706055 2.28880882263183594
10.7897710800170898 64.1611328125 8.89905643463134766
23.5697612762451172 65.412261962890625 22.0078296661376953
-0.608080089092254639 6.75798797607421875 0.171500712633132935
3.39817333221435547 22.3608989715576172 4.24952840805053711
-0.431396007537841797 9.06238842010498047 4.44857454299926758
2.49841594696044922 4.31148433685302734 1.44760465621948242
27.3544025421142578 65.4048614501953125 21.4894390106201172
-2.59290027618408203 2.71502900123596191 1.1941523551940918
0.236846417188644409 3.84051942825317383 0.0428256243467330933
26.0057144165039062 65.3273849487304688 23.8214645385742188
0.290910542011260986 5.26236104965209961 2.7219231128692627
29.8417835235595703 65.3763046264648438 22.08612060546875
1.73423683643341064 9.72493839263916016 0.955245614051818848
-1.1346590518951416 7.47474861145019531 2.4141693115234375
28.2954483032226562 65.3021240234375 24.4329509735107422
-1.38954377174377441 1.61797082424163818 -0.153606325387954712
24.1144485473632812 65.3712158203125 24.0040378570556641
0.470338702201843262 5.6015620231628418 1.15949273109436035
25.7871475219726562 65.4387130737304688 20.8196239471435547
2.63656210899353027 1.80037200450897217 0.64829707145690918
0.469395041465759277 2.40267038345336914 0.671552777290344238
-1.14090335369110107 5.31525611877441406 1.46882414817810059
1.97631716728210449 3.67012381553649902 -0.0102883456274867058
-0.856011033058166504 8.72449016571044922 2.15971040725708008
0.404938042163848877 7.1416163444519043 2.34317779541015625
-0.126553803682327271 3.88792967796325684 1.74420046806335449
29.2500324249267578 65.285980224609375 25.7634391784667969
25.5454540252685547 65.2804183959960938 22.6052818298339844
30.6503658294677734 65.3585128784179688 23.2615833282470703
-0.825651168823242188 2.91565918922424316 0.997760593891143799
-0.978879809379577637 4.73661041259765625 0.0998589396476745605
27.9140586853027344 65.3651809692382812 23.2222499847412109
-0.390940070152282715 6.23961639404296875 1.79759466648101807
24.6854934692382812 65.4232406616210938 21.4356060028076172
28.9954776763916016 65.364013671875 23.5086212158203125
2.03505253791809082 1.27393209934234619 -0.159384727478027344
-0.948799729347229004 7.69301462173461914 3.53969573974609375
-0.650366365909576416 4.2208704948425293 2.33799839019775391
-0.241778478026390076 8.87612628936767578 3.32593560218811035
-0.692689657211303711 2.904449462890625 -0.104980424046516418
26.6225185394287109 65.394683837890625 22.2985496520996094
-0.241834446787834167 1.74340605735778809 -0.0377970598638057709
0.932211339473724365 4.85743141174316406 0.115033544600009918
29.0105400085449219 65.2871932983398438 22.1299095153808594
1.12110650539398193 2.91899681091308594 -0.0924948751926422119
-0.817536056041717529 3.86127352714538574 0.714186310768127441
0.575768053531646729 4.59342193603515625 2.15942764282226562
1.02465963363647461 5.91820573806762695 0.175623148679733276
29.9962120056152344 65.2080612182617188 21.1395854949951172
0.198909074068069458 3.15488028526306152 1.26565849781036377
-2.43962001800537109 2.64080619812011719 0.00382751971483230591
-0.563174009323120117 5.73803377151489258 0.0925756245851516724
23.1991825103759766 65.4479446411132812 22.8831310272216797
-0.148170486092567444 4.75230503082275391 0.762159109115600586
-0.840242862701416016 7.06941890716552734 2.05190706253051758
0.793417096138000488 6.27973365783691406 1.31810688972473145
24.4805488586425781 65.3986282348632812 23.021026611328125
2.90882611274719238 3.24885010719299316 1.31808352470397949
27.9415397644042969 65.33624267578125 22.22637939453125
-0.834201931953430176 2.24483704566955566 0.311220526695251465
0.693467080593109131 1.92414653301239014 -0.13737139105796814
26.7036037445068359 65.4104537963867188 21.1012477874755859
26.8195877075195312 65.3153152465820312 23.5286769866943359
29.9743328094482422 65.2594146728515625 23.5594959259033203
-1.48213553428649902 2.21278619766235352 0.997079849243164062
25.79766845703125 65.425933837890625 22.0113773345947266
1.1682051420211792 4.1925654411315918 0.248758196830749512
-0.403881043195724487 5.59906911849975586 1.23822474479675293
0.29722064733505249 6.37408542633056641 2.21037054061889648
29.3554840087890625 65.2346420288085938 24.9875717163085938
0.209324151277542114 2.60405111312866211 -0.0640638172626495361
28.2444419860839844 65.2807235717773438 23.6916885375976562
-0.949433445930480957 4.77165317535400391 1.09630012512207031
-0.770106017589569092 4.09762096405029297 -0.0291322041302919388
-0.748446226119995117 7.6092529296875 2.27781343460083008
-1.06744551658630371 5.88919258117675781 1.68210446834564209
-0.594105720520019531 1.29657816886901855 -0.0780844241380691528
-0.501650750637054443 3.31809735298156738 1.28693556785583496
0.637022554874420166 3.57691478729248047 -0.2075996994972229
27.6234207153320312 65.3367691040039062 24.1016330718994141
25.8631706237792969 65.3566665649414062 23.2372303009033203
0.77069467306137085 4.81343221664428711 0.861091792583465576
-2.02597379684448242 1.34192085266113281 0.122522085905075073
0.103812351822853088 6.76918888092041016 0.469334602355957031
0.648604154586791992 4.07800388336181641 1.58164584636688232
24.675018310546875 65.3815536499023438 22.3073272705078125
0.17243628203868866 4.45146274566650391 0.109725534915924072
-0.585400819778442383 7.29502344131469727 1.98069357872009277
2.23286247253417969 2.78913354873657227 0.873314797878265381
0.00240048207342624664 3.22082042694091797 -0.102331966161727905
-1.60854136943817139 2.86419010162353516 1.32862305641174316
24.1221351623535156 65.4182510375976562 21.7098903656005859
31.09466552734375 65.26947021484375 22.72320556640625
-0.305516034364700317 9.20314693450927734 3.84348106384277344
29.8586311340332031 65.348663330078125 22.6195697784423828
-1.17104935646057129 6.20501041412353516 0.286320000886917114
-0.141257926821708679 3.8552243709564209 0.74233245849609375
29.2795066833496094 65.397247314453125 21.8521690368652344
-1.22839236259460449 2.65603971481323242 0.691877365112304688
25.1469764709472656 65.3692245483398438 23.2540798187255859
29.554718017578125 65.3115921020507812 24.0639781951904297
25.4301986694335938 65.3458251953125 23.8317108154296875
29.8660011291503906 65.3137741088867188 24.8605785369873047
0.211732298135757446 3.02929472923278809 0.585971593856811523
28.7796707153320312 65.3349151611328125 24.0172214508056641
-0.67499697208404541 1.88365471363067627 -0.0839070454239845276
27.4808998107910156 65.3426971435546875 20.973907470703125
24.1194095611572266 65.38873291015625 22.2872810363769531
25.9804973602294922 65.4410247802734375 21.5141391754150391
-0.825219452381134033 5.22234535217285156 0.691465616226196289
-1.08640956878662109 3.07555174827575684 1.45256543159484863
28.2003726959228516 65.2961502075195312 24.9695892333984375
-1.49685633182525635 1.87253928184509277 0.345298409461975098
24.6263484954833984 65.3503036499023438 23.4951610565185547
1.99630856513977051 3.32619071006774902 -0.154723450541496277
27.1686553955078125 65.3958663940429688 22.2875442504882812
0.626615285873413086 1.15689182281494141 -0.112717047333717346
-0.269058465957641602 1.23401260375976562 -0.0935352295637130737
27.6302089691162109 65.4003982543945312 22.6664009094238281
30.212921142578125 65.361663818359375 22.5069618225097656
0.583591282367706299 4.37050104141235352 -0.0191257297992706299
-0.828488409519195557 8.48479175567626953 2.29251408576965332
28.7311210632324219 65.3591384887695312 22.6392745971679688
2.62729120254516602 2.90363240242004395 1.03076589107513428
0.251457750797271729 2.10911130905151367 -0.0518900379538536072
-0.835565268993377686 6.53116178512573242 1.72659695148468018
29.2834281921386719 65.3007431030273438 23.0856571197509766
-0.0905358493328094482 4.78718233108520508 -0.0590784996747970581
28.4379234313964844 65.28143310546875 21.8252048492431641
0.408456355333328247 3.06082415580749512 -0.170261785387992859
28.4275302886962891 65.2436447143554688 23.2083835601806641
-1.23624467849731445 2.4707036018371582 0.204927310347557068
-0.726003646850585938 5.27112531661987305 0.181353509426116943
26.5462055206298828 65.464599609375 23.1372776031494141
1.1590951681137085 1.54311394691467285 -0.172884568572044373
0.256972581148147583 4.51358985900878906 1.8013375997543335
26.5660877227783203 65.3428573608398438 22.6650867462158203
-0.207569807767868042 7.13671636581420898 2.05974388122558594
-0.536455750465393066 6.76523160934448242 1.97527098655700684
-0.417160958051681519 3.66890907287597656 1.41049873828887939
0.276246905326843262 4.09245634078979492 0.545495748519897461
-1.01563572883605957 5.70246124267578125 1.19946491718292236
29.0660781860351562 65.4046096801757812 25.3416614532470703
-0.0161625780165195465 3.5036616325378418 1.35743618011474609
2.06669855117797852 2.97827816009521484 0.764536261558532715
-0.580420970916748047 5.33879518508911133 1.52124249935150146
1.41907644271850586 4.137664794921875 0.0485381670296192169
27.1201629638671875 65.2406845092773438 22.6279506683349609
-0.876634061336517334 2.76018643379211426 0.289445817470550537
-1.97755789756774902 2.39490485191345215 0.904835343360900879
0.61571502685546875 2.5622553825378418 -0.0910511016845703125
-0.145396947860717773 5.21261358261108398 0.846483826637268066
0.750676393508911133 3.95908260345458984 0.027139861136674881
-0.478821516036987305 3.83123421669006348 -0.124516509473323822
-1.08585250377655029 1.82295167446136475 -0.0288596097379922867
-0.0517436414957046509 2.22373533248901367 -0.0219372138381004333
-0.324367225170135498 4.74310207366943359 1.27790272235870361
-0.785450935363769531 4.37471771240234375 0.997427701950073242
1.02245461940765381 2.3120875358581543 -0.126611515879631042
-1.31320106983184814 2.69248485565185547 1.05995142459869385
24.0609455108642578 65.4019699096679688 23.2483348846435547
-0.768079936504364014 3.33414483070373535 -0.100512988865375519
0.828339278697967529 4.57067155838012695 0.167315155267715454
29.9232425689697266 65.3456878662109375 21.6885089874267578
-2.71273064613342285 1.91786575317382812 0.269571363925933838
-0.504624009132385254 5.86718940734863281 1.46139287948608398
-1.77825391292572021 1.36986696720123291 -0.118812486529350281
24.6489238739013672 65.2435226440429688 22.6287345886230469
-0.142658829689025879 3.41124439239501953 0.962347030639648438
0.164050042629241943 1.44806933403015137 -0.107749238610267639
-0.615742802619934082 7.33792686462402344 2.00859642028808594
-0.142413437366485596 2.64052700996398926 -0.0818762406706809998
0.291234016418457031 3.61428070068359375 -0.0157552435994148254
0.151690065860748291 3.90177202224731445 1.35062646865844727
-1.34446728229522705 2.2375643253326416 0.703376233577728271
-1.03872716426849365 5.01951265335083008 1.20758414268493652
-0.517948746681213379 1.46905183792114258 -0.0448119267821311951
-0.894481003284454346 6.1734461784362793 1.87163424491882324
28.1897430419921875 65.292572021484375 24.0939674377441406
25.5865840911865234 65.3846511840820312 22.9846706390380859
-0.970091342926025391 2.51577305793762207 0.84904181957244873
-1.94718527793884277 1.72960412502288818 -0.0562542378902435303
29.8294029235839844 65.343231201171875 23.2026653289794922
-0.809476017951965332 4.44659423828125 0.00561351701617240906
-1.00432419776916504 2.77137136459350586 1.34362113475799561
-0.653120160102844238 3.2468719482421875 0.935901284217834473
0.64695972204208374 4.4102778434753418 1.72177720069885254
-0.158263012766838074 6.11065530776977539 1.58434140682220459
0.304557204246520996 2.88453531265258789 0.989872992038726807
26.1682586669921875 65.30450439453125 23.3120079040527344
27.9735031127929688 65.3883590698242188 23.5891666412353516
1.19617378711700439 4.20273637771606445 -0.0245748423039913177
-0.253808140754699707 4.03839683532714844 -0.0677742138504981995
-0.646825551986694336 3.58188199996948242 1.07013595104217529
0.371449798345565796 3.25837302207946777 -0.00696011073887348175
-0.60232698917388916 3.1050870418548584 1.24371862411499023
0.467281162738800049 2.27215981483459473 -0.0964818894863128662
-0.425355613231658936 3.95352435111999512 1.69480264186859131
-0.233478903770446777 3.04344630241394043 -0.101158812642097473
29.5879650115966797 65.24884033203125 25.66717529296875
-0.230207324028015137 4.00727224349975586 0.767984390258789062
-0.378076881170272827 2.15338397026062012 -0.0591071955859661102
1.43804991245269775 0.901338696479797363 -0.163667097687721252
0.448690652847290039 3.99167871475219727 0.0844631195068359375
0.543107867240905762 4.50647878646850586 0.156975626945495605
-0.680882155895233154 1.51390528678894043 -0.068585127592086792
-0.611876308917999268 6.63255643844604492 0.277075737714767456
0.407688915729522705 4.92998504638671875 2.15809106826782227
30.0039215087890625 65.3176116943359375 22.4046764373779297
-0.851908564567565918 7.18083858489990234 0.265109360218048096
-1.09678566455841064 3.94159603118896484 0.0765102803707122803
-0.547394633293151855 7.95983123779296875 2.24893808364868164
-0.8084755539894104 6.88593721389770508 1.77948951721191406
0.128837525844573975 4.19089412689208984 1.95429933071136475
-0.486218750476837158 4.3596954345703125 -0.0483707711100578308
-0.90348583459854126 5.42891550064086914 1.06323862075805664
-0.8187674880027771 2.09877538681030273 -0.033594086766242981
0.834777712821960449 1.55215787887573242 -0.121277801692485809
-0.434741973876953125 6.14018821716308594 0.186592176556587219
0.333506345748901367 4.24441003799438477 0.0325801894068717957
0.216083019971847534 1.92736244201660156 -0.070956304669380188
29.2217559814453125 65.4369659423828125 23.9988861083984375
-1.01807916164398193 5.61718320846557617 1.67848455905914307
23.5610771179199219 65.3776702880859375 22.834320068359375
-0.511156439781188965 4.90049409866333008 0.129841551184654236
-1.49706530570983887 1.77470731735229492 -0.0542008690536022186
-0.995154201984405518 5.71825551986694336 0.245320916175842285
-1.48407721519470215 2.53775620460510254 0.906951725482940674
26.8967952728271484 65.3312454223632812 23.1324481964111328
0.333354473114013672 2.72596144676208496 0.703486442565917969
0.198891356587409973 2.99632525444030762 -0.0913976281881332397
0.00267643481492996216 4.38249111175537109 0.00450673326849937439
0.0771000906825065613 2.20930290222167969 0.162854120135307312
26.2335929870605469 65.4435958862304688 21.0110111236572266
0.543440461158752441 4.70519495010375977 0.0670670941472053528
-0.427798986434936523 3.94579339027404785 -0.108782120048999786
0.640189111232757568 2.12940621376037598 0.438183605670928955
-1.11136734485626221 2.97878289222717285 1.20613265037536621
1.38316404819488525 3.85980963706970215 0.023623807355761528
0.188056319952011108 5.00684404373168945 0.0525399520993232727
-0.480248630046844482 3.19480586051940918 -0.104383386671543121
-1.02347517013549805 2.52237939834594727 0.372157365083694458
0.361033797264099121 3.77754449844360352 0.0854769274592399597
-1.02924704551696777 1.51424753665924072 0.280111342668533325
-0.855874598026275635 1.79020345211029053 0.0564197748899459839
-0.993910610675811768 6.57957792282104492 0.322934120893478394
1.21379554271697998 3.17213749885559082 -0.142179787158966064
-0.608421683311462402 4.58138465881347656 1.16092503070831299
-1.70129740238189697 1.65588927268981934 0.24503009021282196
0.968451559543609619 4.19172334671020508 0.0786064416170120239
-0.412451654672622681 1.28114664554595947 -0.0827077776193618774
