ply
format ascii 1.0
element vertex 8
comment vertices
property float x
property float y
property float z
end_header
0.604016005992889404 0.829861223697662354 -0.0951456204056739807
-0.594105720520019531 1.29657816886901855 -0.0780844241380691528
-0.269058465957641602 1.23401260375976562 -0.0935352295637130737
0.251457750797271729 2.10911130905151367 -0.0518900379538536072
-0.517948746681213379 1.46905183792114258 -0.0448119267821311951
0.467281162738800049 2.27215981483459473 -0.0964818894863128662
0.216083019971847534 1.92736244201660156 -0.070956304669380188
-0.412451654672622681 1.28114664554595947 -0.0827077776193618774
